<svg width="800" height="622" viewBox="0 0 800 622" fill="none" xmlns="http://www.w3.org/2000/svg">
<path d="M191.962 599.86C229.035 578.6 254.143 545.612 263.595 510.791C271.109 483.274 268.805 454.736 254.85 430.047L383.244 356.608C473.91 402.059 677.183 504.088 709.229 522.389C750.674 546.109 800 503.669 800 503.669L462.993 310.974L800 118.331C800 118.331 750.674 75.9169 709.255 99.6111C677.183 117.938 473.936 219.993 383.27 265.392L254.876 191.979C268.831 167.29 271.135 138.7 263.621 111.236C254.169 76.362 229.061 43.3995 191.989 22.1402C125.304 -16.0323 45.3201 -1.44926 13.2479 54.579C-1.02103 79.4252 -3.29885 108.199 4.21522 135.925C13.7191 170.72 38.8271 203.761 75.8215 224.994C92.1587 234.288 109.255 240.441 126.247 243.583H126.221C126.352 243.609 126.483 243.609 126.613 243.74C128.027 243.923 129.441 244.185 130.986 244.316C236.733 260.077 290.745 289.872 316.979 310.948C290.745 332.076 236.759 361.897 130.986 377.632C129.441 377.789 128.027 378.051 126.613 378.182C126.483 378.286 126.352 378.286 126.221 378.339H126.247C109.281 381.507 92.1587 387.633 75.8215 396.901C38.8271 418.161 13.7191 451.202 4.21522 486.023C-3.29885 513.749 -1.02103 542.522 13.2479 567.421C45.3201 623.475 125.278 638.006 191.962 599.86ZM107.03 170.484C86.006 158.441 70.1663 139.354 64.7467 119.483C62.338 110.633 60.8719 97.6475 67.7052 85.7349C82.2359 60.3389 124.938 56.1761 160.806 76.6761C182.066 88.9291 197.539 107.492 203.063 127.73C205.446 136.501 206.886 149.487 200.105 161.452C185.522 186.874 142.924 191.01 107.03 170.484ZM67.7052 536.239C60.8457 524.326 62.338 511.393 64.7467 502.543C70.1663 482.645 86.006 463.585 107.03 451.516C142.924 431.016 185.522 435.152 200.105 460.575C206.912 472.539 205.446 485.525 203.063 494.322C197.539 514.508 182.066 533.123 160.806 545.298C124.938 565.798 82.2359 561.661 67.7052 536.239Z" fill="white"/>
</svg>
